STARTFONT 2.1
FONT -Adobe-ITC Avant Garde Gothic-Demi-O-Normal--12-120-75-75-P-71-ISO8859-1
SIZE 12 75 75
FONTBOUNDINGBOX 17 15 -2 -3

STARTPROPERTIES 25
FONTNAME_REGISTRY ""
FAMILY_NAME "ITC Avant Garde Gothic"
FOUNDRY "Adobe"
WEIGHT_NAME "Demi"
SLANT "O"
SETWIDTH_NAME "Normal"
ADD_STYLE_NAME ""
PIXEL_SIZE 12
POINT_SIZE 120
RESOLUTION_X 75
RESOLUTION_Y 75
SPACING "P"
AVERAGE_WIDTH 71
CHARSET_REGISTRY "ISO8859"
CHARSET_ENCODING "1"
CHARSET_COLLECTIONS "ASCII ISO8859-1 ADOBE-STANDARD"
FULL_NAME "ITC Avant Garde Gothic Demi Oblique"
COPYRIGHT "Copyright (c) 1985,1987 Adobe Systems, Inc., Portions Copyright 1988 Digital Equipment Corp."
CAP_HEIGHT 9
X_HEIGHT 7
WEIGHT 10
QUAD_WIDTH 8
DEFAULT_CHAR 32
FONT_DESCENT 3
FONT_ASCENT 11
ENDPROPERTIES

CHARS 190

STARTCHAR space
ENCODING 32
SWIDTH 280 0
DWIDTH 3 0
BBX 1 1 0 0
BITMAP
00
ENDCHAR

STARTCHAR exclam
ENCODING 33
SWIDTH 280 0
DWIDTH 4 0
BBX 3 9 0 0
BITMAP
60
60
60
C0
C0
C0
00
C0
C0
ENDCHAR

STARTCHAR quotedbl
ENCODING 34
SWIDTH 360 0
DWIDTH 5 0
BBX 3 3 1 6
BITMAP
A0
A0
A0
ENDCHAR

STARTCHAR numbersign
ENCODING 35
SWIDTH 600 0
DWIDTH 8 0
BBX 7 8 0 0
BITMAP
14
14
7E
28
28
FC
50
50
ENDCHAR

STARTCHAR dollar
ENCODING 36
SWIDTH 560 0
DWIDTH 7 0
BBX 6 11 0 -1
BITMAP
18
38
7C
6C
70
38
1C
CC
F8
70
60
ENDCHAR

STARTCHAR percent
ENCODING 37
SWIDTH 860 0
DWIDTH 11 0
BBX 10 10 0 -1
BITMAP
6200
F200
9400
F400
6980
0BC0
1240
13C0
2180
2000
ENDCHAR

STARTCHAR ampersand
ENCODING 38
SWIDTH 680 0
DWIDTH 10 0
BBX 9 9 0 0
BITMAP
1C00
3E00
3600
3C00
7980
CF00
C600
FF00
7B00
ENDCHAR

STARTCHAR quoteright
ENCODING 39
SWIDTH 280 0
DWIDTH 4 0
BBX 2 4 1 5
BITMAP
C0
C0
40
80
ENDCHAR

STARTCHAR parenleft
ENCODING 40
SWIDTH 380 0
DWIDTH 6 0
BBX 5 11 0 -2
BITMAP
18
38
60
60
C0
C0
C0
C0
C0
70
30
ENDCHAR

STARTCHAR parenright
ENCODING 41
SWIDTH 380 0
DWIDTH 6 0
BBX 5 11 0 -2
BITMAP
60
70
18
18
18
18
18
30
30
E0
C0
ENDCHAR

STARTCHAR asterisk
ENCODING 42
SWIDTH 440 0
DWIDTH 6 0
BBX 5 5 0 4
BITMAP
48
30
F8
60
90
ENDCHAR

STARTCHAR plus
ENCODING 43
SWIDTH 600 0
DWIDTH 7 0
BBX 6 7 0 0
BITMAP
10
10
10
FC
20
20
20
ENDCHAR

STARTCHAR comma
ENCODING 44
SWIDTH 280 0
DWIDTH 3 0
BBX 2 4 0 -2
BITMAP
C0
C0
40
80
ENDCHAR

STARTCHAR minus
ENCODING 45
SWIDTH 600 0
DWIDTH 7 0
BBX 6 1 0 3
BITMAP
FC
ENDCHAR

STARTCHAR period
ENCODING 46
SWIDTH 280 0
DWIDTH 3 0
BBX 2 2 0 0
BITMAP
C0
C0
ENDCHAR

STARTCHAR slash
ENCODING 47
SWIDTH 460 0
DWIDTH 8 0
BBX 7 11 0 -2
BITMAP
06
04
0C
08
18
10
30
20
60
40
C0
ENDCHAR

STARTCHAR zero
ENCODING 48
SWIDTH 560 0
DWIDTH 7 0
BBX 6 9 0 0
BITMAP
38
7C
6C
CC
CC
CC
D8
F8
70
ENDCHAR

STARTCHAR one
ENCODING 49
SWIDTH 560 0
DWIDTH 7 0
BBX 3 9 2 0
BITMAP
E0
E0
60
60
C0
C0
C0
C0
C0
ENDCHAR

STARTCHAR two
ENCODING 50
SWIDTH 560 0
DWIDTH 7 0
BBX 6 9 0 0
BITMAP
38
7C
6C
0C
18
30
60
F8
F8
ENDCHAR

STARTCHAR three
ENCODING 51
SWIDTH 560 0
DWIDTH 7 0
BBX 6 9 0 0
BITMAP
38
7C
0C
38
3C
0C
DC
F8
70
ENDCHAR

STARTCHAR four
ENCODING 52
SWIDTH 560 0
DWIDTH 7 0
BBX 6 9 0 0
BITMAP
1C
3C
2C
6C
48
D8
FC
FC
18
ENDCHAR

STARTCHAR five
ENCODING 53
SWIDTH 560 0
DWIDTH 7 0
BBX 6 9 0 0
BITMAP
3C
3C
60
78
7C
0C
DC
F8
70
ENDCHAR

STARTCHAR six
ENCODING 54
SWIDTH 560 0
DWIDTH 7 0
BBX 6 9 0 0
BITMAP
18
30
60
78
FC
CC
CC
F8
70
ENDCHAR

STARTCHAR seven
ENCODING 55
SWIDTH 560 0
DWIDTH 6 0
BBX 5 9 0 0
BITMAP
F8
F8
18
30
30
60
60
C0
C0
ENDCHAR

STARTCHAR eight
ENCODING 56
SWIDTH 560 0
DWIDTH 7 0
BBX 6 9 0 0
BITMAP
38
7C
6C
38
78
CC
CC
F8
70
ENDCHAR

STARTCHAR nine
ENCODING 57
SWIDTH 560 0
DWIDTH 7 0
BBX 6 9 0 0
BITMAP
38
7C
CC
CC
FC
78
18
30
60
ENDCHAR

STARTCHAR colon
ENCODING 58
SWIDTH 280 0
DWIDTH 3 0
BBX 3 7 0 0
BITMAP
60
60
00
00
00
C0
C0
ENDCHAR

STARTCHAR semicolon
ENCODING 59
SWIDTH 280 0
DWIDTH 3 0
BBX 3 9 0 -2
BITMAP
60
60
00
00
00
C0
C0
40
80
ENDCHAR

STARTCHAR less
ENCODING 60
SWIDTH 600 0
DWIDTH 7 0
BBX 6 7 0 0
BITMAP
04
1C
70
C0
60
30
18
ENDCHAR

STARTCHAR equal
ENCODING 61
SWIDTH 600 0
DWIDTH 8 0
BBX 7 3 0 2
BITMAP
7E
00
FC
ENDCHAR

STARTCHAR greater
ENCODING 62
SWIDTH 600 0
DWIDTH 7 0
BBX 6 7 0 0
BITMAP
60
30
18
0C
38
E0
80
ENDCHAR

STARTCHAR question
ENCODING 63
SWIDTH 560 0
DWIDTH 7 0
BBX 5 9 1 0
BITMAP
70
F8
98
30
60
C0
00
C0
C0
ENDCHAR

STARTCHAR at
ENCODING 64
SWIDTH 740 0
DWIDTH 11 0
BBX 10 10 0 0
BITMAP
0F00
1080
2040
4D40
5B40
9240
9680
9B00
4080
3F00
ENDCHAR

STARTCHAR A
ENCODING 65
SWIDTH 740 0
DWIDTH 8 0
BBX 7 9 0 0
BITMAP
18
18
3C
3C
6C
7C
FE
C6
C6
ENDCHAR

STARTCHAR B
ENCODING 66
SWIDTH 580 0
DWIDTH 7 0
BBX 6 9 0 0
BITMAP
78
7C
6C
78
F8
CC
CC
F8
F0
ENDCHAR

STARTCHAR C
ENCODING 67
SWIDTH 780 0
DWIDTH 9 0
BBX 8 9 0 0
BITMAP
1E
7F
63
C0
C0
C0
C6
7E
38
ENDCHAR

STARTCHAR D
ENCODING 68
SWIDTH 700 0
DWIDTH 9 0
BBX 8 9 0 0
BITMAP
7C
7E
63
63
C3
C3
C6
FE
F8
ENDCHAR

STARTCHAR E
ENCODING 69
SWIDTH 520 0
DWIDTH 7 0
BBX 6 9 0 0
BITMAP
7C
7C
60
78
F8
C0
C0
F8
F8
ENDCHAR

STARTCHAR F
ENCODING 70
SWIDTH 480 0
DWIDTH 6 0
BBX 6 9 0 0
BITMAP
7C
7C
60
60
F8
F8
C0
C0
C0
ENDCHAR

STARTCHAR G
ENCODING 71
SWIDTH 840 0
DWIDTH 9 0
BBX 8 9 0 0
BITMAP
1E
7F
63
C0
CF
CF
C6
7E
38
ENDCHAR

STARTCHAR H
ENCODING 72
SWIDTH 680 0
DWIDTH 8 0
BBX 7 9 0 0
BITMAP
66
66
66
7E
FC
CC
CC
CC
CC
ENDCHAR

STARTCHAR I
ENCODING 73
SWIDTH 280 0
DWIDTH 4 0
BBX 3 9 0 0
BITMAP
60
60
60
60
C0
C0
C0
C0
C0
ENDCHAR

STARTCHAR J
ENCODING 74
SWIDTH 480 0
DWIDTH 7 0
BBX 6 9 0 0
BITMAP
0C
0C
0C
0C
18
18
D8
F8
70
ENDCHAR

STARTCHAR K
ENCODING 75
SWIDTH 620 0
DWIDTH 8 0
BBX 8 9 0 0
BITMAP
63
66
6C
78
F8
EC
CC
C6
C6
ENDCHAR

STARTCHAR L
ENCODING 76
SWIDTH 440 0
DWIDTH 5 0
BBX 4 9 0 0
BITMAP
60
60
60
60
C0
C0
C0
F0
F0
ENDCHAR

STARTCHAR M
ENCODING 77
SWIDTH 900 0
DWIDTH 12 0
BBX 11 9 0 0
BITMAP
60E0
70E0
71E0
71E0
DBC0
DAC0
DEC0
CCC0
CCC0
ENDCHAR

STARTCHAR N
ENCODING 78
SWIDTH 740 0
DWIDTH 9 0
BBX 8 9 0 0
BITMAP
63
73
73
7B
DE
CE
CE
C6
C6
ENDCHAR

STARTCHAR O
ENCODING 79
SWIDTH 840 0
DWIDTH 9 0
BBX 8 9 0 0
BITMAP
1C
7E
63
C3
C3
C3
C6
7E
38
ENDCHAR

STARTCHAR P
ENCODING 80
SWIDTH 560 0
DWIDTH 7 0
BBX 7 9 0 0
BITMAP
7C
7E
66
66
FC
F8
C0
C0
C0
ENDCHAR

STARTCHAR Q
ENCODING 81
SWIDTH 840 0
DWIDTH 9 0
BBX 8 9 0 0
BITMAP
1C
7E
63
C3
F3
FB
CE
7F
3B
ENDCHAR

STARTCHAR R
ENCODING 82
SWIDTH 580 0
DWIDTH 8 0
BBX 7 9 0 0
BITMAP
7C
7E
66
66
FC
F8
D8
CC
CC
ENDCHAR

STARTCHAR S
ENCODING 83
SWIDTH 520 0
DWIDTH 7 0
BBX 6 9 0 0
BITMAP
38
7C
6C
60
30
18
D8
F8
70
ENDCHAR

STARTCHAR T
ENCODING 84
SWIDTH 420 0
DWIDTH 6 0
BBX 6 9 0 0
BITMAP
FC
FC
30
30
60
60
60
60
60
ENDCHAR

STARTCHAR U
ENCODING 85
SWIDTH 640 0
DWIDTH 8 0
BBX 7 9 0 0
BITMAP
66
66
66
66
CC
CC
CC
FC
78
ENDCHAR

STARTCHAR V
ENCODING 86
SWIDTH 700 0
DWIDTH 7 0
BBX 7 9 0 0
BITMAP
C6
C6
CC
CC
78
78
70
70
60
ENDCHAR

STARTCHAR W
ENCODING 87
SWIDTH 900 0
DWIDTH 10 0
BBX 10 9 0 0
BITMAP
CCC0
CCC0
CCC0
DD80
DD80
7700
7700
6600
6600
ENDCHAR

STARTCHAR X
ENCODING 88
SWIDTH 680 0
DWIDTH 9 0
BBX 10 9 -1 0
BITMAP
30C0
3980
1B00
1E00
0C00
1E00
3600
6700
C300
ENDCHAR

STARTCHAR Y
ENCODING 89
SWIDTH 620 0
DWIDTH 7 0
BBX 7 9 0 0
BITMAP
C6
C6
6C
6C
78
38
30
30
30
ENDCHAR

STARTCHAR Z
ENCODING 90
SWIDTH 500 0
DWIDTH 7 0
BBX 6 9 0 0
BITMAP
7C
7C
0C
18
30
60
C0
F8
F8
ENDCHAR

STARTCHAR bracketleft
ENCODING 91
SWIDTH 320 0
DWIDTH 5 0
BBX 4 11 0 -2
BITMAP
30
70
60
60
60
C0
C0
C0
C0
E0
60
ENDCHAR

STARTCHAR backslash
ENCODING 92
SWIDTH 640 0
DWIDTH 7 0
BBX 6 9 0 0
BITMAP
C0
40
60
20
30
10
18
08
0C
ENDCHAR

STARTCHAR bracketright
ENCODING 93
SWIDTH 320 0
DWIDTH 5 0
BBX 4 11 0 -2
BITMAP
60
70
30
30
30
30
60
60
60
E0
C0
ENDCHAR

STARTCHAR asciicircum
ENCODING 94
SWIDTH 600 0
DWIDTH 8 0
BBX 7 5 0 4
BITMAP
08
18
3C
64
C6
ENDCHAR

STARTCHAR underscore
ENCODING 95
SWIDTH 500 0
DWIDTH 6 0
BBX 6 1 0 -2
BITMAP
FC
ENDCHAR

STARTCHAR quoteleft
ENCODING 96
SWIDTH 280 0
DWIDTH 4 0
BBX 2 4 1 5
BITMAP
40
80
C0
C0
ENDCHAR

STARTCHAR a
ENCODING 97
SWIDTH 660 0
DWIDTH 8 0
BBX 7 7 0 0
BITMAP
36
7E
C6
C6
CC
FC
6C
ENDCHAR

STARTCHAR b
ENCODING 98
SWIDTH 660 0
DWIDTH 7 0
BBX 6 9 0 0
BITMAP
60
60
78
7C
CC
CC
CC
F8
F0
ENDCHAR

STARTCHAR c
ENCODING 99
SWIDTH 640 0
DWIDTH 7 0
BBX 6 7 0 0
BITMAP
38
7C
CC
C0
CC
F8
70
ENDCHAR

STARTCHAR d
ENCODING 100
SWIDTH 660 0
DWIDTH 8 0
BBX 7 9 0 0
BITMAP
06
06
36
7E
C6
CC
CC
FC
6C
ENDCHAR

STARTCHAR e
ENCODING 101
SWIDTH 640 0
DWIDTH 7 0
BBX 6 7 0 0
BITMAP
38
7C
CC
FC
C0
F8
70
ENDCHAR

STARTCHAR f
ENCODING 102
SWIDTH 280 0
DWIDTH 4 0
BBX 4 9 0 0
BITMAP
30
60
F0
60
C0
C0
C0
C0
C0
ENDCHAR

STARTCHAR g
ENCODING 103
SWIDTH 660 0
DWIDTH 8 0
BBX 7 10 0 -3
BITMAP
36
7E
C6
C6
CC
FC
6C
0C
F8
F0
ENDCHAR

STARTCHAR h
ENCODING 104
SWIDTH 600 0
DWIDTH 8 0
BBX 7 9 0 0
BITMAP
60
60
6C
7E
66
66
CC
CC
CC
ENDCHAR

STARTCHAR i
ENCODING 105
SWIDTH 240 0
DWIDTH 4 0
BBX 3 9 0 0
BITMAP
60
00
60
60
60
C0
C0
C0
C0
ENDCHAR

STARTCHAR j
ENCODING 106
SWIDTH 260 0
DWIDTH 4 0
BBX 5 12 -2 -3
BITMAP
18
00
18
18
18
30
30
30
30
30
E0
C0
ENDCHAR

STARTCHAR k
ENCODING 107
SWIDTH 580 0
DWIDTH 7 0
BBX 7 9 0 0
BITMAP
60
60
66
6C
78
F8
D8
CC
CC
ENDCHAR

STARTCHAR l
ENCODING 108
SWIDTH 240 0
DWIDTH 4 0
BBX 3 9 0 0
BITMAP
60
60
60
60
C0
C0
C0
C0
C0
ENDCHAR

STARTCHAR m
ENCODING 109
SWIDTH 940 0
DWIDTH 12 0
BBX 11 7 0 0
BITMAP
6DC0
7FE0
6660
6660
CCC0
CCC0
CCC0
ENDCHAR

STARTCHAR n
ENCODING 110
SWIDTH 600 0
DWIDTH 8 0
BBX 7 7 0 0
BITMAP
6C
7E
66
66
CC
CC
CC
ENDCHAR

STARTCHAR o
ENCODING 111
SWIDTH 640 0
DWIDTH 7 0
BBX 6 7 0 0
BITMAP
38
7C
CC
CC
CC
F8
70
ENDCHAR

STARTCHAR p
ENCODING 112
SWIDTH 660 0
DWIDTH 8 0
BBX 7 10 0 -3
BITMAP
6C
7E
66
66
66
FC
D8
C0
C0
C0
ENDCHAR

STARTCHAR q
ENCODING 113
SWIDTH 660 0
DWIDTH 8 0
BBX 7 10 0 -3
BITMAP
36
7E
C6
C6
CE
FC
6C
0C
0C
0C
ENDCHAR

STARTCHAR r
ENCODING 114
SWIDTH 320 0
DWIDTH 5 0
BBX 5 7 0 0
BITMAP
78
78
60
C0
C0
C0
C0
ENDCHAR

STARTCHAR s
ENCODING 115
SWIDTH 440 0
DWIDTH 6 0
BBX 5 7 0 0
BITMAP
38
78
60
70
30
F0
E0
ENDCHAR

STARTCHAR t
ENCODING 116
SWIDTH 300 0
DWIDTH 4 0
BBX 4 9 0 0
BITMAP
60
60
F0
60
60
C0
C0
C0
C0
ENDCHAR

STARTCHAR u
ENCODING 117
SWIDTH 600 0
DWIDTH 8 0
BBX 7 7 0 0
BITMAP
66
66
66
CC
CC
FC
6C
ENDCHAR

STARTCHAR v
ENCODING 118
SWIDTH 560 0
DWIDTH 8 0
BBX 7 7 0 0
BITMAP
C6
C6
CC
6C
78
78
70
ENDCHAR

STARTCHAR w
ENCODING 119
SWIDTH 800 0
DWIDTH 10 0
BBX 10 7 0 0
BITMAP
CCC0
CCC0
DD80
DD80
7700
7700
6600
ENDCHAR

STARTCHAR x
ENCODING 120
SWIDTH 560 0
DWIDTH 7 0
BBX 6 7 0 0
BITMAP
6C
6C
38
78
70
D8
D8
ENDCHAR

STARTCHAR y
ENCODING 121
SWIDTH 580 0
DWIDTH 8 0
BBX 7 10 0 -3
BITMAP
C6
C6
CC
6C
78
78
30
30
60
60
ENDCHAR

STARTCHAR z
ENCODING 122
SWIDTH 460 0
DWIDTH 7 0
BBX 6 7 0 0
BITMAP
7C
7C
18
30
60
F8
F8
ENDCHAR

STARTCHAR braceleft
ENCODING 123
SWIDTH 340 0
DWIDTH 6 0
BBX 5 11 0 -2
BITMAP
18
30
30
20
C0
60
60
60
60
60
30
ENDCHAR

STARTCHAR bar
ENCODING 124
SWIDTH 600 0
DWIDTH 7 0
BBX 2 9 2 0
BITMAP
40
40
40
40
80
80
80
80
80
ENDCHAR

STARTCHAR braceright
ENCODING 125
SWIDTH 340 0
DWIDTH 6 0
BBX 5 11 0 -2
BITMAP
60
30
30
30
18
20
60
60
60
60
C0
ENDCHAR

STARTCHAR asciitilde
ENCODING 126
SWIDTH 600 0
DWIDTH 8 0
BBX 7 2 0 3
BITMAP
76
DC
ENDCHAR

STARTCHAR exclamdown
ENCODING 161
SWIDTH 280 0
DWIDTH 4 0
BBX 3 9 0 -2
BITMAP
60
60
00
60
60
60
C0
C0
C0
ENDCHAR

STARTCHAR cent
ENCODING 162
SWIDTH 560 0
DWIDTH 7 0
BBX 6 9 0 0
BITMAP
18
18
7C
EC
C0
CC
78
30
30
ENDCHAR

STARTCHAR sterling
ENCODING 163
SWIDTH 560 0
DWIDTH 9 0
BBX 8 9 0 0
BITMAP
3C
76
60
60
FC
30
63
FE
FC
ENDCHAR

STARTCHAR currency
ENCODING 164
SWIDTH 600 0
DWIDTH 9 0
BBX 8 5 0 2
BITMAP
5D
36
66
6C
BA
ENDCHAR

STARTCHAR yen
ENCODING 165
SWIDTH 560 0
DWIDTH 8 0
BBX 7 9 0 0
BITMAP
C6
C6
6C
EE
78
FE
30
30
30
ENDCHAR

STARTCHAR brokenbar
ENCODING 166
SWIDTH 600 0
DWIDTH 7 0
BBX 2 9 2 0
BITMAP
40
40
40
00
00
80
80
80
80
ENDCHAR

STARTCHAR section
ENCODING 167
SWIDTH 560 0
DWIDTH 8 0
BBX 7 11 0 -2
BITMAP
1C
3E
66
70
7C
CE
F6
3C
CC
F8
70
ENDCHAR

STARTCHAR dieresis
ENCODING 168
SWIDTH 500 0
DWIDTH 7 0
BBX 3 2 2 8
BITMAP
A0
A0
ENDCHAR

STARTCHAR copyright
ENCODING 169
SWIDTH 740 0
DWIDTH 11 0
BBX 10 9 0 0
BITMAP
1F00
2080
4E40
9140
A040
A240
9C80
4100
3E00
ENDCHAR

STARTCHAR ordfeminine
ENCODING 170
SWIDTH 360 0
DWIDTH 6 0
BBX 5 6 0 3
BITMAP
38
48
58
68
00
F0
ENDCHAR

STARTCHAR guillemotleft
ENCODING 171
SWIDTH 460 0
DWIDTH 7 0
BBX 6 5 0 1
BITMAP
24
6C
D8
6C
24
ENDCHAR

STARTCHAR logicalnot
ENCODING 172
SWIDTH 600 0
DWIDTH 7 0
BBX 6 4 0 1
BITMAP
FC
04
04
04
ENDCHAR

STARTCHAR hyphen
ENCODING 173
SWIDTH 420 0
DWIDTH 5 0
BBX 4 1 0 3
BITMAP
F0
ENDCHAR

STARTCHAR registered
ENCODING 174
SWIDTH 740 0
DWIDTH 11 0
BBX 10 9 0 0
BITMAP
1F00
2080
5E40
9140
BE40
A440
A280
4100
3E00
ENDCHAR

STARTCHAR macron
ENCODING 175
SWIDTH 420 0
DWIDTH 6 0
BBX 4 1 1 8
BITMAP
F0
ENDCHAR

STARTCHAR degree
ENCODING 176
SWIDTH 400 0
DWIDTH 5 0
BBX 4 4 0 5
BITMAP
60
90
90
60
ENDCHAR

STARTCHAR plusminus
ENCODING 177
SWIDTH 600 0
DWIDTH 7 0
BBX 7 7 -1 0
BITMAP
08
08
7E
10
10
00
FC
ENDCHAR

STARTCHAR twosuperior
ENCODING 178
SWIDTH 336 0
DWIDTH 4 0
BBX 5 5 0 4
BITMAP
70
D8
30
60
F0
ENDCHAR

STARTCHAR threesuperior
ENCODING 179
SWIDTH 336 0
DWIDTH 4 0
BBX 4 5 0 4
BITMAP
E0
30
60
30
E0
ENDCHAR

STARTCHAR acute
ENCODING 180
SWIDTH 420 0
DWIDTH 5 0
BBX 3 2 1 8
BITMAP
60
C0
ENDCHAR

STARTCHAR mu
ENCODING 181
SWIDTH 576 0
DWIDTH 8 0
BBX 8 10 -1 -3
BITMAP
33
33
33
66
66
7E
76
C0
C0
C0
ENDCHAR

STARTCHAR paragraph
ENCODING 182
SWIDTH 600 0
DWIDTH 7 0
BBX 6 11 0 -2
BITMAP
7C
F4
F4
F4
68
28
28
50
50
50
50
ENDCHAR

STARTCHAR periodcentered
ENCODING 183
SWIDTH 280 0
DWIDTH 5 0
BBX 2 2 1 3
BITMAP
C0
C0
ENDCHAR

STARTCHAR cedilla
ENCODING 184
SWIDTH 340 0
DWIDTH 6 0
BBX 4 3 0 -3
BITMAP
20
B0
60
ENDCHAR

STARTCHAR onesuperior
ENCODING 185
SWIDTH 336 0
DWIDTH 4 0
BBX 3 5 1 4
BITMAP
E0
60
40
C0
C0
ENDCHAR

STARTCHAR ordmasculine
ENCODING 186
SWIDTH 360 0
DWIDTH 6 0
BBX 5 6 0 3
BITMAP
38
48
48
70
00
F0
ENDCHAR

STARTCHAR guillemotright
ENCODING 187
SWIDTH 460 0
DWIDTH 7 0
BBX 6 5 0 1
BITMAP
90
D8
6C
D8
90
ENDCHAR

STARTCHAR onequarter
ENCODING 188
SWIDTH 840 0
DWIDTH 10 0
BBX 8 9 1 0
BITMAP
E4
6C
48
D8
D2
36
2A
7F
44
ENDCHAR

STARTCHAR onehalf
ENCODING 189
SWIDTH 840 0
DWIDTH 10 0
BBX 9 9 1 0
BITMAP
E400
6C00
4800
D800
D700
3D80
2300
6600
4F00
ENDCHAR

STARTCHAR threequarters
ENCODING 190
SWIDTH 840 0
DWIDTH 10 0
BBX 9 9 0 0
BITMAP
E200
3600
6400
3C00
E900
1B00
1500
3F80
2200
ENDCHAR

STARTCHAR questiondown
ENCODING 191
SWIDTH 560 0
DWIDTH 7 0
BBX 6 9 0 -2
BITMAP
18
18
00
18
30
60
CC
F8
70
ENDCHAR

STARTCHAR Agrave
ENCODING 192
SWIDTH 740 0
DWIDTH 8 0
BBX 7 12 0 0
BITMAP
30
18
00
18
18
3C
3C
6C
7C
FE
C6
C6
ENDCHAR

STARTCHAR Aacute
ENCODING 193
SWIDTH 740 0
DWIDTH 8 0
BBX 7 12 0 0
BITMAP
0C
18
00
18
18
3C
3C
6C
7C
FE
C6
C6
ENDCHAR

STARTCHAR Acircumflex
ENCODING 194
SWIDTH 740 0
DWIDTH 8 0
BBX 7 12 0 0
BITMAP
18
34
00
18
18
3C
3C
6C
7C
FE
C6
C6
ENDCHAR

STARTCHAR Atilde
ENCODING 195
SWIDTH 740 0
DWIDTH 8 0
BBX 7 12 0 0
BITMAP
1A
2C
00
18
18
3C
3C
6C
7C
FE
C6
C6
ENDCHAR

STARTCHAR Adieresis
ENCODING 196
SWIDTH 740 0
DWIDTH 8 0
BBX 7 12 0 0
BITMAP
14
14
00
18
18
3C
3C
6C
7C
FE
C6
C6
ENDCHAR

STARTCHAR Aring
ENCODING 197
SWIDTH 740 0
DWIDTH 8 0
BBX 7 12 0 0
BITMAP
18
34
18
18
18
3C
3C
6C
7C
FE
C6
C6
ENDCHAR

STARTCHAR AE
ENCODING 198
SWIDTH 900 0
DWIDTH 13 0
BBX 13 9 -1 0
BITMAP
00F8
01F8
03C0
06F0
0DF0
1F80
3F80
61F0
C1F0
ENDCHAR

STARTCHAR Ccedilla
ENCODING 199
SWIDTH 780 0
DWIDTH 9 0
BBX 8 12 0 -3
BITMAP
1E
7F
63
C0
C0
C0
C6
7E
38
10
58
30
ENDCHAR

STARTCHAR Egrave
ENCODING 200
SWIDTH 520 0
DWIDTH 7 0
BBX 6 12 0 0
BITMAP
30
18
00
7C
7C
60
78
F8
C0
C0
F8
F8
ENDCHAR

STARTCHAR Eacute
ENCODING 201
SWIDTH 520 0
DWIDTH 7 0
BBX 6 12 0 0
BITMAP
0C
18
00
7C
7C
60
78
F8
C0
C0
F8
F8
ENDCHAR

STARTCHAR Ecircumflex
ENCODING 202
SWIDTH 520 0
DWIDTH 7 0
BBX 6 12 0 0
BITMAP
18
34
00
7C
7C
60
78
F8
C0
C0
F8
F8
ENDCHAR

STARTCHAR Edieresis
ENCODING 203
SWIDTH 520 0
DWIDTH 7 0
BBX 6 12 0 0
BITMAP
28
28
00
7C
7C
60
78
F8
C0
C0
F8
F8
ENDCHAR

STARTCHAR Igrave
ENCODING 204
SWIDTH 280 0
DWIDTH 4 0
BBX 3 12 0 0
BITMAP
C0
60
00
60
60
60
60
C0
C0
C0
C0
C0
ENDCHAR

STARTCHAR Iacute
ENCODING 205
SWIDTH 280 0
DWIDTH 4 0
BBX 4 12 0 0
BITMAP
30
60
00
60
60
60
60
C0
C0
C0
C0
C0
ENDCHAR

STARTCHAR Icircumflex
ENCODING 206
SWIDTH 280 0
DWIDTH 4 0
BBX 4 12 0 0
BITMAP
60
D0
00
60
60
60
60
C0
C0
C0
C0
C0
ENDCHAR

STARTCHAR Idieresis
ENCODING 207
SWIDTH 280 0
DWIDTH 4 0
BBX 4 12 0 0
BITMAP
50
50
00
60
60
60
60
C0
C0
C0
C0
C0
ENDCHAR

STARTCHAR Eth
ENCODING 208
SWIDTH 742 0
DWIDTH 9 0
BBX 9 9 -1 0
BITMAP
3E00
3F00
3180
3180
F980
6180
6300
7F00
7C00
ENDCHAR

STARTCHAR Ntilde
ENCODING 209
SWIDTH 740 0
DWIDTH 9 0
BBX 8 12 0 0
BITMAP
1A
2C
00
63
73
73
7B
DE
CE
CE
C6
C6
ENDCHAR

STARTCHAR Ograve
ENCODING 210
SWIDTH 840 0
DWIDTH 9 0
BBX 8 12 0 0
BITMAP
18
0C
00
1C
7E
63
C3
C3
C3
C6
7E
38
ENDCHAR

STARTCHAR Oacute
ENCODING 211
SWIDTH 840 0
DWIDTH 9 0
BBX 8 12 0 0
BITMAP
06
0C
00
1C
7E
63
C3
C3
C3
C6
7E
38
ENDCHAR

STARTCHAR Ocircumflex
ENCODING 212
SWIDTH 840 0
DWIDTH 9 0
BBX 8 12 0 0
BITMAP
0C
1A
00
1C
7E
63
C3
C3
C3
C6
7E
38
ENDCHAR

STARTCHAR Otilde
ENCODING 213
SWIDTH 840 0
DWIDTH 9 0
BBX 8 12 0 0
BITMAP
0D
16
00
1C
7E
63
C3
C3
C3
C6
7E
38
ENDCHAR

STARTCHAR Odieresis
ENCODING 214
SWIDTH 840 0
DWIDTH 9 0
BBX 8 12 0 0
BITMAP
14
14
00
1C
7E
63
C3
C3
C3
C6
7E
38
ENDCHAR

STARTCHAR multiply
ENCODING 215
SWIDTH 600 0
DWIDTH 7 0
BBX 8 7 -1 0
BITMAP
63
36
1C
18
38
6C
C6
ENDCHAR

STARTCHAR Oslash
ENCODING 216
SWIDTH 840 0
DWIDTH 9 0
BBX 9 9 0 0
BITMAP
1C00
7E80
6300
C700
CB00
D300
E600
7E00
B800
ENDCHAR

STARTCHAR Ugrave
ENCODING 217
SWIDTH 640 0
DWIDTH 8 0
BBX 7 12 0 0
BITMAP
30
18
00
66
66
66
66
CC
CC
CC
FC
78
ENDCHAR

STARTCHAR Uacute
ENCODING 218
SWIDTH 640 0
DWIDTH 8 0
BBX 7 12 0 0
BITMAP
0C
18
00
66
66
66
66
CC
CC
CC
FC
78
ENDCHAR

STARTCHAR Ucircumflex
ENCODING 219
SWIDTH 640 0
DWIDTH 8 0
BBX 7 12 0 0
BITMAP
18
34
00
66
66
66
66
CC
CC
CC
FC
78
ENDCHAR

STARTCHAR Udieresis
ENCODING 220
SWIDTH 640 0
DWIDTH 8 0
BBX 7 12 0 0
BITMAP
14
14
00
66
66
66
66
CC
CC
CC
FC
78
ENDCHAR

STARTCHAR Yacute
ENCODING 221
SWIDTH 620 0
DWIDTH 7 0
BBX 7 12 0 0
BITMAP
18
30
00
C6
C6
6C
6C
78
38
30
30
30
ENDCHAR

STARTCHAR Thorn
ENCODING 222
SWIDTH 560 0
DWIDTH 7 0
BBX 7 9 0 0
BITMAP
60
7C
7E
66
C6
FC
F8
C0
C0
ENDCHAR

STARTCHAR germandbls
ENCODING 223
SWIDTH 600 0
DWIDTH 8 0
BBX 7 9 0 0
BITMAP
1C
3E
66
6E
6C
C6
C6
FE
DC
ENDCHAR

STARTCHAR agrave
ENCODING 224
SWIDTH 660 0
DWIDTH 8 0
BBX 7 10 0 0
BITMAP
18
0C
00
36
7E
C6
C6
CC
FC
6C
ENDCHAR

STARTCHAR aacute
ENCODING 225
SWIDTH 660 0
DWIDTH 8 0
BBX 7 10 0 0
BITMAP
0C
18
00
36
7E
C6
C6
CC
FC
6C
ENDCHAR

STARTCHAR acircumflex
ENCODING 226
SWIDTH 660 0
DWIDTH 8 0
BBX 7 10 0 0
BITMAP
18
34
00
36
7E
C6
C6
CC
FC
6C
ENDCHAR

STARTCHAR atilde
ENCODING 227
SWIDTH 660 0
DWIDTH 8 0
BBX 7 10 0 0
BITMAP
1A
2C
00
36
7E
C6
C6
CC
FC
6C
ENDCHAR

STARTCHAR adieresis
ENCODING 228
SWIDTH 660 0
DWIDTH 8 0
BBX 7 10 0 0
BITMAP
14
14
00
36
7E
C6
C6
CC
FC
6C
ENDCHAR

STARTCHAR aring
ENCODING 229
SWIDTH 660 0
DWIDTH 8 0
BBX 7 10 0 0
BITMAP
18
24
18
36
7E
C6
C6
CC
FC
6C
ENDCHAR

STARTCHAR ae
ENCODING 230
SWIDTH 1080 0
DWIDTH 12 0
BBX 11 7 0 0
BITMAP
36C0
7FE0
C660
C7E0
CE00
FFC0
6D80
ENDCHAR

STARTCHAR ccedilla
ENCODING 231
SWIDTH 640 0
DWIDTH 7 0
BBX 6 10 0 -3
BITMAP
38
7C
CC
C0
CC
F8
70
20
B0
60
ENDCHAR

STARTCHAR egrave
ENCODING 232
SWIDTH 640 0
DWIDTH 7 0
BBX 6 10 0 0
BITMAP
30
18
00
38
7C
CC
FC
C0
F8
70
ENDCHAR

STARTCHAR eacute
ENCODING 233
SWIDTH 640 0
DWIDTH 7 0
BBX 6 10 0 0
BITMAP
18
30
00
38
7C
CC
FC
C0
F8
70
ENDCHAR

STARTCHAR ecircumflex
ENCODING 234
SWIDTH 640 0
DWIDTH 7 0
BBX 6 10 0 0
BITMAP
30
68
00
38
7C
CC
FC
C0
F8
70
ENDCHAR

STARTCHAR edieresis
ENCODING 235
SWIDTH 640 0
DWIDTH 7 0
BBX 6 10 0 0
BITMAP
28
28
00
38
7C
CC
FC
C0
F8
70
ENDCHAR

STARTCHAR igrave
ENCODING 236
SWIDTH 240 0
DWIDTH 4 0
BBX 3 10 0 0
BITMAP
C0
60
00
60
60
60
C0
C0
C0
C0
ENDCHAR

STARTCHAR iacute
ENCODING 237
SWIDTH 240 0
DWIDTH 4 0
BBX 4 10 0 0
BITMAP
30
60
00
60
60
60
C0
C0
C0
C0
ENDCHAR

STARTCHAR icircumflex
ENCODING 238
SWIDTH 240 0
DWIDTH 4 0
BBX 4 10 0 0
BITMAP
60
D0
00
60
60
60
C0
C0
C0
C0
ENDCHAR

STARTCHAR idieresis
ENCODING 239
SWIDTH 240 0
DWIDTH 4 0
BBX 4 10 0 0
BITMAP
50
50
00
60
60
60
C0
C0
C0
C0
ENDCHAR

STARTCHAR eth
ENCODING 240
SWIDTH 640 0
DWIDTH 7 0
BBX 6 10 0 0
BITMAP
6C
30
58
3C
7C
CC
CC
CC
F8
70
ENDCHAR

STARTCHAR ntilde
ENCODING 241
SWIDTH 600 0
DWIDTH 8 0
BBX 7 10 0 0
BITMAP
1A
2C
00
6C
7E
66
66
CC
CC
CC
ENDCHAR

STARTCHAR ograve
ENCODING 242
SWIDTH 640 0
DWIDTH 7 0
BBX 6 10 0 0
BITMAP
30
18
00
38
7C
CC
CC
CC
F8
70
ENDCHAR

STARTCHAR oacute
ENCODING 243
SWIDTH 640 0
DWIDTH 7 0
BBX 6 10 0 0
BITMAP
0C
18
00
38
7C
CC
CC
CC
F8
70
ENDCHAR

STARTCHAR ocircumflex
ENCODING 244
SWIDTH 640 0
DWIDTH 7 0
BBX 6 10 0 0
BITMAP
30
68
00
38
7C
CC
CC
CC
F8
70
ENDCHAR

STARTCHAR otilde
ENCODING 245
SWIDTH 640 0
DWIDTH 7 0
BBX 6 10 0 0
BITMAP
34
58
00
38
7C
CC
CC
CC
F8
70
ENDCHAR

STARTCHAR odieresis
ENCODING 246
SWIDTH 640 0
DWIDTH 7 0
BBX 6 10 0 0
BITMAP
28
28
00
38
7C
CC
CC
CC
F8
70
ENDCHAR

STARTCHAR divide
ENCODING 247
SWIDTH 600 0
DWIDTH 7 0
BBX 6 7 0 0
BITMAP
10
10
00
FC
00
20
20
ENDCHAR

STARTCHAR oslash
ENCODING 248
SWIDTH 660 0
DWIDTH 7 0
BBX 8 7 -1 0
BITMAP
1D
3E
66
6E
76
7C
B8
ENDCHAR

STARTCHAR ugrave
ENCODING 249
SWIDTH 600 0
DWIDTH 8 0
BBX 7 10 0 0
BITMAP
18
0C
00
66
66
66
CC
CC
FC
6C
ENDCHAR

STARTCHAR uacute
ENCODING 250
SWIDTH 600 0
DWIDTH 8 0
BBX 7 10 0 0
BITMAP
0C
18
00
66
66
66
CC
CC
FC
6C
ENDCHAR

STARTCHAR ucircumflex
ENCODING 251
SWIDTH 600 0
DWIDTH 8 0
BBX 7 10 0 0
BITMAP
18
34
00
66
66
66
CC
CC
FC
6C
ENDCHAR

STARTCHAR udieresis
ENCODING 252
SWIDTH 600 0
DWIDTH 8 0
BBX 7 10 0 0
BITMAP
14
14
00
66
66
66
CC
CC
FC
6C
ENDCHAR

STARTCHAR yacute
ENCODING 253
SWIDTH 580 0
DWIDTH 8 0
BBX 7 13 0 -3
BITMAP
0C
18
00
C6
C6
CC
6C
78
78
30
30
60
60
ENDCHAR

STARTCHAR thorn
ENCODING 254
SWIDTH 660 0
DWIDTH 8 0
BBX 8 12 -1 -3
BITMAP
30
30
36
3F
73
63
63
7E
6C
C0
C0
C0
ENDCHAR

STARTCHAR ydieresis
ENCODING 255
SWIDTH 580 0
DWIDTH 8 0
BBX 7 13 0 -3
BITMAP
28
28
00
C6
C6
CC
6C
78
78
30
30
60
60
ENDCHAR
ENDFONT
